<?xml version="1.0" standalone="no"?>
<!DOCTYPE svg PUBLIC "-//W3C//DTD SVG 20010904//EN"
 "http://www.w3.org/TR/2001/REC-SVG-20010904/DTD/svg10.dtd">
<svg version="1.0" xmlns="http://www.w3.org/2000/svg"
 width="123.000000pt" height="123.000000pt" viewBox="0 0 123.000000 123.000000"
 preserveAspectRatio="xMidYMid meet">
<metadata>
Created by potrace 1.11, written by Peter Selinger 2001-2013
</metadata>
<g transform="translate(0.000000,123.000000) scale(0.100000,-0.100000)"
fill="#000000" stroke="none">
<path d="M225 830 c-56 -31 -74 -47 -92 -82 -35 -67 -47 -140 -34 -211 9 -52
8 -63 -6 -79 -9 -10 -20 -18 -25 -18 -5 0 -22 -10 -38 -22 -66 -48 -68 -48
495 -48 l526 0 50 25 c49 25 64 43 111 132 20 37 21 44 8 67 -10 20 -11 31 -2
51 16 34 15 45 -3 45 -12 0 -15 15 -15 74 0 41 5 78 10 81 35 22 -24 25 -452
24 l-463 -1 -70 -38z"/>
</g>
</svg>
